<svg aria-hidden="true" style="position: absolute; width: 0; height: 0; overflow: hidden;" version="1.1"
  xmlns="http://www.w3.org/2000/svg"
  xmlns:xlink="http://www.w3.org/1999/xlink">
  <defs>
    <symbol id="icon-feedback" viewBox="0 0 32 32">
      <title>feedback</title>
      <path d="M9.812 23.219c0.374-0.554 0.597-1.238 0.597-1.973 0-1.964-1.593-3.557-3.557-3.557-0.771 0-1.485 0.245-2.068 0.662l0.011-0.007c-0.112 0.080-0.184 0.21-0.184 0.357 0 0.242 0.196 0.438 0.438 0.438 0.095 0 0.183-0.030 0.255-0.082l-0.001 0.001c0.43-0.307 0.965-0.491 1.544-0.491 1.477 0 2.675 1.198 2.675 2.675s-1.198 2.675-2.675 2.675c-1.477 0-2.675-1.198-2.675-2.675 0-0.295 0.048-0.579 0.136-0.845l-0.005 0.019c0.014-0.040 0.021-0.087 0.021-0.135 0-0.242-0.196-0.438-0.438-0.438-0.193 0-0.358 0.125-0.415 0.299l-0.001 0.003c-0.11 0.328-0.173 0.705-0.173 1.097 0 0.737 0.224 1.422 0.608 1.99l-0.008-0.013c-1.558 0.349-2.706 1.718-2.709 3.356v3.788c0 0.242 0.196 0.438 0.438 0.438v0h10.46c0.242 0 0.438-0.196 0.438-0.438v0-3.788c-0.003-1.64-1.151-3.010-2.687-3.354l-0.023-0.004zM11.648 29.927h-9.585v-3.35c0.002-1.415 1.148-2.561 2.562-2.563h0.002c0.603 0.491 1.381 0.788 2.228 0.788s1.625-0.297 2.234-0.793l-0.007 0.005h0.003c1.415 0.002 2.561 1.148 2.563 2.562v0zM30.813 4.625v3.771c0 0.242-0.196 0.438-0.438 0.438s-0.438-0.196-0.438-0.438v0-3.771c-0.002-1.415-1.148-2.561-2.562-2.563h-16c-1.415 0.002-2.561 1.148-2.563 2.562v8.375c0.002 1.415 1.148 2.561 2.562 2.563h1.655c0.221 0 0.404 0.164 0.434 0.376l0 0.002c0.161 1.185 0.18 2.802-0.181 4.032 1.933-0.674 3.427-2.17 4.084-4.058l0.014-0.046c0.057-0.179 0.222-0.306 0.417-0.306h9.578c1.415-0.002 2.561-1.148 2.563-2.562v-0.844c0-0.242 0.196-0.438 0.438-0.438s0.438 0.196 0.438 0.438v0 0.844c-0.002 1.898-1.54 3.435-3.437 3.437h-9.265c-0.917 2.363-2.952 4.109-5.439 4.603l-0.047 0.008c-0.025 0.005-0.054 0.008-0.083 0.008-0.242 0-0.437-0.196-0.437-0.437 0-0.082 0.023-0.159 0.062-0.225l-0.001 0.002c0.46-0.778 0.642-2.335 0.475-3.959h-1.266c-1.898-0.002-3.435-1.54-3.438-3.437v-8.375c0.002-1.898 1.54-3.435 3.437-3.438h16c1.898 0.002 3.435 1.54 3.438 3.437v0zM30.813 9.938v0.729c0 0.242-0.196 0.438-0.438 0.438s-0.438-0.196-0.438-0.438v0-0.729c0-0.242 0.196-0.438 0.438-0.438s0.438 0.196 0.438 0.438v0zM23.813 8.813c0 0.656 0.532 1.188 1.188 1.188s1.188-0.532 1.188-1.188c0-0.656-0.532-1.188-1.188-1.188v0c-0.655 0.001-1.187 0.532-1.188 1.187v0zM25.313 8.813c0 0.173-0.14 0.313-0.313 0.313s-0.313-0.14-0.313-0.313c0-0.173 0.14-0.313 0.313-0.313v0c0.172 0 0.312 0.14 0.313 0.312v0zM20.063 8.813c0 0.656 0.532 1.188 1.188 1.188s1.188-0.532 1.188-1.188c0-0.656-0.532-1.188-1.188-1.188v0c-0.655 0.001-1.187 0.532-1.188 1.187v0zM21.563 8.813c0 0.173-0.14 0.313-0.313 0.313s-0.313-0.14-0.313-0.313c0-0.173 0.14-0.313 0.313-0.313v0c0.172 0 0.312 0.14 0.313 0.312v0zM16.313 8.813c0 0.656 0.532 1.188 1.188 1.188s1.188-0.532 1.188-1.188c0-0.656-0.532-1.188-1.188-1.188v0c-0.655 0.001-1.187 0.532-1.188 1.187v0zM17.813 8.813c0 0.173-0.14 0.313-0.313 0.313s-0.313-0.14-0.313-0.313c0-0.173 0.14-0.313 0.313-0.313v0c0.172 0 0.312 0.14 0.313 0.312v0zM12.563 8.813c0 0.656 0.532 1.188 1.188 1.188s1.188-0.532 1.188-1.188c0-0.656-0.532-1.188-1.188-1.188v0c-0.655 0.001-1.187 0.532-1.188 1.187v0zM14.063 8.813c0 0.173-0.14 0.313-0.313 0.313s-0.313-0.14-0.313-0.313c0-0.173 0.14-0.313 0.313-0.313v0c0.172 0 0.312 0.14 0.313 0.312v0z"></path>
    </symbol>
    <symbol id="icon-hearts" viewBox="0 0 32 32">
      <title>hearts</title>
      <path d="M6.952 12.197c-0.288 0.289-0.466 0.688-0.466 1.128s0.178 0.839 0.466 1.128l2.039 2.039c0.079 0.079 0.189 0.128 0.31 0.128s0.23-0.049 0.31-0.128v0l2.040-2.040c0.289-0.289 0.467-0.687 0.467-1.128 0-0.881-0.714-1.595-1.595-1.595-0.44 0-0.839 0.179-1.128 0.467l-0.094 0.094-0.093-0.093c-0.289-0.289-0.687-0.467-1.128-0.467s-0.839 0.179-1.128 0.467v0zM8.991 13.219c0.079 0.079 0.188 0.128 0.309 0.128s0.23-0.049 0.309-0.128v0l0.403-0.403c0.132-0.126 0.312-0.204 0.509-0.204s0.377 0.078 0.509 0.204l-0-0c0.13 0.13 0.211 0.31 0.211 0.509s-0.081 0.379-0.211 0.509l-1.731 1.73-1.73-1.73c-0.13-0.13-0.211-0.31-0.211-0.509 0-0.398 0.322-0.72 0.72-0.72 0.199 0 0.379 0.081 0.509 0.211v0zM18.35 12.197c0.288 0.289 0.466 0.688 0.466 1.128s-0.178 0.839-0.466 1.128l-2.039 2.039c-0.014 0.014-0.029 0.028-0.046 0.040l-0.001 0.001c-0.073 0.057-0.167 0.092-0.268 0.092-0.242 0-0.438-0.196-0.438-0.438 0-0.127 0.054-0.242 0.141-0.322l0-0 2.030-2.030c0.13-0.13 0.211-0.31 0.211-0.509 0-0.398-0.322-0.72-0.72-0.72-0.199 0-0.379 0.081-0.509 0.211l-0.403 0.403c-0.079 0.079-0.189 0.128-0.309 0.128s-0.23-0.049-0.309-0.128v0l-0.402-0.402c-0.13-0.13-0.31-0.211-0.509-0.211-0.398 0-0.72 0.322-0.72 0.72 0 0.199 0.081 0.379 0.211 0.509l0.886 0.886c0.079 0.079 0.128 0.189 0.128 0.309 0 0.242-0.196 0.438-0.438 0.438-0.121 0-0.23-0.049-0.309-0.128v0l-0.886-0.886c-0.289-0.289-0.467-0.687-0.467-1.128 0-0.881 0.714-1.595 1.595-1.595 0.44 0 0.839 0.179 1.128 0.467v0l0.093 0.093 0.094-0.094c0.289-0.289 0.688-0.467 1.129-0.467s0.84 0.179 1.129 0.467v0zM22.7 16.62c0 0 0 0 0.001 0 0.121 0 0.23-0.049 0.31-0.128v0l2.039-2.039c0.288-0.289 0.466-0.688 0.466-1.128s-0.178-0.839-0.466-1.128l0 0c-0.289-0.289-0.687-0.467-1.128-0.467s-0.839 0.179-1.128 0.467l-0.094 0.094-0.093-0.093c-0.289-0.289-0.688-0.468-1.129-0.468-0.881 0-1.596 0.714-1.596 1.596 0 0.44 0.178 0.839 0.467 1.128l2.040 2.039c0.079 0.079 0.188 0.128 0.308 0.128 0 0 0.001 0 0.001 0h-0zM20.758 13.325c0 0 0 0 0-0 0-0.398 0.322-0.72 0.72-0.72 0.199 0 0.379 0.081 0.509 0.211v0l0.402 0.402c0.079 0.079 0.188 0.128 0.309 0.128s0.23-0.049 0.309-0.128v0l0.403-0.403c0.132-0.126 0.311-0.204 0.509-0.204s0.377 0.078 0.509 0.204l-0-0c0.13 0.13 0.21 0.31 0.21 0.509s-0.080 0.379-0.21 0.509l-1.729 1.731-1.73-1.73c-0.131-0.13-0.212-0.31-0.212-0.508 0-0 0-0.001 0-0.001v0zM9.438 9.070c0-0.242 0.196-0.438 0.438-0.438v0h0.281c0.242 0 0.438 0.196 0.438 0.438s-0.196 0.438-0.438 0.438v0h-0.281c-0 0-0 0-0 0-0.242 0-0.437-0.196-0.437-0.437 0-0 0-0 0-0v0zM27.808 10.762v6.825c-0.001 1.176-0.954 2.129-2.13 2.13h-4.303c-0.242 0-0.438-0.196-0.438-0.438s0.196-0.438 0.438-0.438v0h4.303c0.693-0.001 1.254-0.562 1.255-1.255v-6.825c-0.001-0.693-0.562-1.254-1.255-1.255h-13.616c-0.242 0-0.438-0.196-0.438-0.438s0.196-0.438 0.438-0.438v0h13.616c1.176 0.001 2.128 0.954 2.13 2.13v0zM20.344 19.28c0 0.242-0.196 0.438-0.438 0.438v0h-0.313c-0.242 0-0.438-0.196-0.438-0.438s0.196-0.438 0.438-0.438v0h0.313c0 0 0 0 0 0 0.241 0 0.437 0.196 0.437 0.437 0 0 0 0 0 0v0zM18.216 19.476l-1.825 3.65c-0.073 0.145-0.221 0.242-0.391 0.242s-0.318-0.097-0.39-0.24l-0.001-0.003-1.704-3.408h-7.583c-1.176-0.001-2.128-0.954-2.13-2.13v-6.825c0.001-1.176 0.954-2.129 2.13-2.13h1.762c0.242 0 0.438 0.196 0.438 0.438s-0.196 0.438-0.438 0.438v0h-1.761c-0.693 0.001-1.254 0.562-1.255 1.255v6.825c0.001 0.693 0.562 1.254 1.255 1.255h7.853c0 0 0 0 0 0 0.17 0 0.318 0.097 0.39 0.239l0.001 0.002 1.434 2.867 1.433-2.867c0.075-0.14 0.22-0.233 0.387-0.233 0.242 0 0.438 0.196 0.438 0.438 0 0.067-0.015 0.131-0.043 0.189l0.001-0.003z"></path>
    </symbol>
    <symbol id="icon-hotel" viewBox="0 0 32 32">
      <title>hotel</title>
      <path d="M15.983 0c-6.47 0-11.733 5.263-11.733 11.733 0 8.655 10.893 19.647 11.356 20.11 0.1 0.1 0.236 0.156 0.377 0.156s0.277-0.056 0.377-0.156c0.464-0.464 11.356-11.456 11.356-20.11 0-6.47-5.264-11.733-11.733-11.733zM15.983 30.699c-1.938-2.038-10.667-11.624-10.667-18.966 0-5.882 4.785-10.667 10.667-10.667s10.667 4.785 10.667 10.667c-0 7.338-8.73 16.928-10.667 18.966z"></path>
      <path d="M25.583 11.733c0-5.293-4.307-9.6-9.6-9.6s-9.6 4.307-9.6 9.6 4.307 9.6 9.6 9.6c5.293 0 9.6-4.307 9.6-9.6zM15.983 20.267c-4.705 0-8.533-3.828-8.533-8.533s3.828-8.533 8.533-8.533c4.705 0 8.533 3.828 8.533 8.533s-3.828 8.533-8.533 8.533z"></path>
      <path d="M22.383 8.533h-2.666v-1.6c0-0.295-0.239-0.533-0.533-0.533h-6.4c-0.295 0-0.533 0.239-0.533 0.533v4.267h-2.667c-0.295 0-0.533 0.239-0.533 0.533v3.733c0 0.295 0.239 0.533 0.533 0.533h12.8c0.295 0 0.533-0.239 0.533-0.533v-6.4c0-0.295-0.239-0.533-0.533-0.533zM12.25 14.933h-2.133v-2.667h2.133zM18.65 9.067v5.867h-5.334v-7.467h5.334zM21.85 14.933h-2.133v-5.334h2.133z"></path>
      <path d="M14.383 8.533h1.067v1.067h-1.067z"></path>
      <path d="M16.517 8.533h1.067v1.067h-1.067z"></path>
      <path d="M14.383 10.667h1.067v1.067h-1.067z"></path>
      <path d="M16.517 10.667h1.067v1.067h-1.067z"></path>
      <path d="M14.383 12.8h1.067v1.067h-1.067z"></path>
      <path d="M16.517 12.8h1.067v1.067h-1.067z"></path>
      <path d="M10.65 12.8h1.067v1.067h-1.067z"></path>
      <path d="M20.25 12.8h1.067v1.067h-1.067z"></path>
      <path d="M20.25 10.667h1.067v1.067h-1.067z"></path>
      <path d="M15.983 4.8v-1.067c-1.646 0-3.227 0.496-4.572 1.434l0.611 0.875c1.165-0.813 2.535-1.243 3.961-1.243z"></path>
      <path d="M11.131 6.781l-0.747-0.762c-0.519 0.509-0.967 1.086-1.33 1.714l0.923 0.534c0.315-0.545 0.703-1.045 1.154-1.486z"></path>
      <path d="M19.873 23.090l0.754 0.754c1.092-1.092 2.155-2.681 2.2-2.748l-0.888-0.592c-0.010 0.016-1.049 1.568-2.067 2.585z"></path>
      <path d="M18.273 25.223l0.754 0.754 1.067-1.067-0.754-0.754z"></path>
    </symbol>
    <symbol id="icon-vacation" viewBox="0 0 32 32">
      <title>vacation</title>
      <path d="M28.855 28.418h-1.422l-1.050-4.575h0.679c0.242 0 0.438-0.196 0.438-0.438v0-1.398h0.373c0.784 0 1.419-0.635 1.419-1.419s-0.635-1.419-1.419-1.419v0h-3.091c-0.242 0-0.438 0.196-0.438 0.438s0.196 0.438 0.438 0.438v0h3.092c0.301 0 0.544 0.244 0.544 0.544s-0.244 0.544-0.544 0.544h-18.674c-0.197-0.001-0.369-0.105-0.465-0.261l-0.001-0.002-5.073-8.427c-0.049-0.080-0.078-0.177-0.078-0.281 0-0.301 0.244-0.544 0.544-0.544 0.197 0 0.369 0.105 0.465 0.261l0.001 0.002 4.786 7.95c0.078 0.128 0.217 0.212 0.375 0.212h12.142c0.242 0 0.438-0.196 0.438-0.438s-0.196-0.438-0.438-0.438v0h-5.458v-6.98c0-0.242-0.196-0.438-0.438-0.438s-0.438 0.196-0.438 0.438v0 6.982h-5.561l-4.659-7.739c-0.253-0.415-0.703-0.687-1.216-0.687-0.784 0-1.419 0.635-1.419 1.419 0 0.27 0.076 0.523 0.207 0.738l-0.004-0.006 5.072 8.426c0.254 0.414 0.703 0.687 1.217 0.688h17.425v0.961h-21.25v-0.961h1.375c0.242 0 0.438-0.196 0.438-0.438s-0.196-0.438-0.438-0.438v0h-1.813c-0.242 0-0.438 0.196-0.438 0.438v0 1.836c0 0.242 0.196 0.438 0.438 0.438v0h1.888l-1.050 4.575h-0.311l0.788-3.437c0.006-0.027 0.009-0.058 0.009-0.090 0-0.242-0.196-0.438-0.438-0.438-0.204 0-0.376 0.14-0.424 0.329l-0.001 0.003-0.833 3.631h-1.422c-0.242 0-0.438 0.196-0.438 0.438s0.196 0.438 0.438 0.438v0h2.979c0.205-0 0.378-0.142 0.424-0.333l0.001-0.003c0-0.002 0.002-0.002 0.002-0.004l0.363-1.581c0.839 0.018 2.8 0.025 5.213 0.025 1.077 0 2.243-0.001 3.436-0.003v1.025h-7.521c-0.242 0-0.438 0.196-0.438 0.438s0.196 0.438 0.438 0.438v0h20.813c0.242 0 0.438-0.196 0.438-0.438s-0.196-0.438-0.438-0.438v0zM26.535 28.418h-0.31l-0.363-1.582v-0.003l-0.47-2.047c-0.049-0.192-0.22-0.332-0.425-0.332-0.242 0-0.438 0.196-0.438 0.438 0 0.032 0.003 0.063 0.010 0.093l-0.001-0.003 0.346 1.508c-2.605 0.010-5.623 0.020-8.447 0.025v-2.67h9.049zM7.112 26.505l0.611-2.661h7.84v2.673c-3.857 0.007-7.217 0.006-8.451-0.012zM16.437 27.39c3.163-0.007 6.414-0.018 8.648-0.027l0.242 1.055h-8.889zM7.336 12.246h0.043c0.217 0 0.397-0.158 0.432-0.366l0-0.003c0.214-1.302 1.332-2.283 2.678-2.283 1.015 0 1.9 0.558 2.365 1.383l0.007 0.014c0.076 0.135 0.219 0.225 0.382 0.225s0.306-0.090 0.381-0.223l0.001-0.002c0.287-0.506 0.716-0.903 1.232-1.142l0.017-0.007v0.908c0 0.242 0.196 0.438 0.438 0.438v0h1.375c0.242 0 0.438-0.196 0.438-0.438v0-0.908c0.533 0.246 0.962 0.643 1.241 1.135l0.007 0.013c0.076 0.135 0.219 0.225 0.382 0.225s0.306-0.090 0.381-0.223l0.001-0.002c0.472-0.839 1.357-1.397 2.372-1.397 1.347 0 2.464 0.981 2.676 2.268l0.002 0.016c0.035 0.21 0.215 0.368 0.432 0.368h0.043c0.242 0 0.438-0.196 0.438-0.438v0c-0.003-5.027-4.079-9.101-9.107-9.101-1.277 0-2.493 0.263-3.596 0.738l0.059-0.023c-0.158 0.068-0.267 0.223-0.267 0.403 0 0.242 0.196 0.438 0.438 0.438 0.062 0 0.12-0.013 0.173-0.036l-0.003 0.001c0.481-0.21 1.045-0.384 1.631-0.496l0.051-0.008c-1.726 1.702-1.924 4.162-1.84 5.714-0.593-0.45-1.343-0.72-2.157-0.72-0.935 0-1.786 0.357-2.424 0.942l0.003-0.002c0.428-1.545 1.248-2.862 2.347-3.884l0.005-0.005c0.082-0.080 0.134-0.191 0.134-0.315 0-0.242-0.196-0.438-0.438-0.438-0.112 0-0.214 0.042-0.291 0.111l0-0c-1.796 1.669-2.917 4.043-2.921 6.679v0.001c0 0.242 0.196 0.438 0.438 0.438v0zM16.25 10.313h-0.5v-0.702c0.083-0.008 0.166-0.017 0.25-0.017s0.167 0.009 0.25 0.017zM16 3.647c1.478 0.881 2.31 2.388 2.473 4.482 0.015 0.23 0.205 0.41 0.437 0.41 0.242 0 0.438-0.196 0.438-0.438 0-0.014-0.001-0.028-0.002-0.042l0 0.002c-0.142-1.817-0.768-3.288-1.829-4.337 3.119 0.606 5.578 2.903 6.411 5.879l0.014 0.058c-0.637-0.585-1.49-0.943-2.427-0.943-1.106 0-2.095 0.499-2.755 1.285l-0.005 0.006c-0.498-0.593-1.175-1.020-1.947-1.199l-0.024-0.005c-0.009-0.002-0.017-0.003-0.025-0.004-0.229-0.053-0.492-0.083-0.762-0.083s-0.533 0.030-0.785 0.088l0.024-0.005c-0.005 0-0.010 0.002-0.015 0.002-0.659 0.151-1.229 0.466-1.686 0.899l0.002-0.002c-0.134-1.571-0.020-4.567 2.466-6.054zM10.845 4.832c-0.046-0.068-0.074-0.152-0.074-0.243 0-0.151 0.077-0.284 0.193-0.363l0.002-0.001 0.115-0.075c0.066-0.042 0.146-0.067 0.233-0.067 0.242 0 0.438 0.196 0.438 0.438 0 0.152-0.077 0.286-0.195 0.364l-0.002 0.001-0.103 0.068c-0.068 0.046-0.152 0.074-0.243 0.074-0.151 0-0.284-0.077-0.363-0.193l-0.001-0.002zM23.438 19.169c0.242 0 0.438 0.196 0.438 0.438s-0.196 0.438-0.438 0.438v0h-0.25c-0.242 0-0.438-0.196-0.438-0.438s0.196-0.438 0.438-0.438v0z"></path>
    </symbol>
  </defs>
</svg>
