<svg width="32" height="32" >
  <symbol
    xmlns="http://www.w3.org/2000/svg" viewBox="0 0 128 128" id="feedback">
    <defs>
      <linearGradient id="a" x1="88.719" y1="92.218" x2="20.532" y2="24.031" gradientUnits="userSpaceOnUse">
        <stop offset="0" stop-color="#5360d9"></stop>
        <stop offset="1" stop-color="#79d5dd"></stop>
      </linearGradient>
    </defs>
    <path d="M39.249 92.876a14.228 14.228 0 0 0-20.066-19.5 1.75 1.75 0 0 0 2.027 2.854 10.7 10.7 0 1 1-4 5.433 1.75 1.75 0 0 0-3.33-1.08 14.234 14.234 0 0 0 1.707 12.3A13.771 13.771 0 0 0 4.75 106.31v15.15a1.75 1.75 0 0 0 1.75 1.75h41.84a1.75 1.75 0 0 0 1.75-1.75v-15.15a13.771 13.771 0 0 0-10.841-13.434zm7.341 26.834H8.25v-13.4A10.261 10.261 0 0 1 18.5 96.06h.006a14.174 14.174 0 0 0 17.823 0h.011a10.261 10.261 0 0 1 10.25 10.25zM123.25 18.5v15.083a1.75 1.75 0 0 1-3.5 0V18.5A10.261 10.261 0 0 0 109.5 8.25h-64A10.261 10.261 0 0 0 35.25 18.5V52A10.261 10.261 0 0 0 45.5 62.25h6.618a1.751 1.751 0 0 1 1.735 1.515c.642 4.739.721 11.207-.722 16.129a26.29 26.29 0 0 0 16.39-16.418 1.75 1.75 0 0 1 1.669-1.226h38.31A10.261 10.261 0 0 0 119.75 52v-3.375a1.75 1.75 0 0 1 3.5 0V52a13.765 13.765 0 0 1-13.75 13.75H72.442A29.445 29.445 0 0 1 50.5 84.193a1.749 1.749 0 0 1-1.836-2.609c1.839-3.111 2.567-9.339 1.9-15.834H45.5A13.765 13.765 0 0 1 31.75 52V18.5A13.765 13.765 0 0 1 45.5 4.75h64a13.765 13.765 0 0 1 13.75 13.75zm0 21.25v2.917a1.75 1.75 0 0 1-3.5 0V39.75a1.75 1.75 0 0 1 3.5 0zm-28-4.5A4.75 4.75 0 1 0 100 30.5a4.756 4.756 0 0 0-4.75 4.75zm6 0A1.25 1.25 0 1 1 100 34a1.252 1.252 0 0 1 1.25 1.25zm-21 0A4.75 4.75 0 1 0 85 30.5a4.756 4.756 0 0 0-4.75 4.75zm6 0A1.25 1.25 0 1 1 85 34a1.252 1.252 0 0 1 1.25 1.25zm-21 0A4.75 4.75 0 1 0 70 30.5a4.756 4.756 0 0 0-4.75 4.75zm6 0A1.25 1.25 0 1 1 70 34a1.252 1.252 0 0 1 1.25 1.25zm-21 0A4.75 4.75 0 1 0 55 30.5a4.756 4.756 0 0 0-4.75 4.75zm6 0A1.25 1.25 0 1 1 55 34a1.252 1.252 0 0 1 1.25 1.25z"
      fill="url(#a)"></path>
  </symbol>
  <symbol viewBox="0 0 128 128"
    xmlns="http://www.w3.org/2000/svg" id="hearts">
    <linearGradient id="a" gradientUnits="userSpaceOnUse" x1="96.203" x2="31.797" y1="88.904" y2="24.497">
      <stop offset="0" stop-color="#b373f0"></stop>
      <stop offset="1" stop-color="#01ebcd"></stop>
    </linearGradient>
    <path d="M27.808 48.79a6.387 6.387 0 0 0 0 9.023l8.157 8.157a1.753 1.753 0 0 0 2.477 0l8.158-8.16a6.38 6.38 0 1 0-9.023-9.023l-.375.375-.372-.372a6.378 6.378 0 0 0-9.022 0zm8.157 4.084a1.748 1.748 0 0 0 2.474 0l1.613-1.612a2.947 2.947 0 0 1 4.073 0 2.879 2.879 0 0 1 0 4.073L37.2 62.257l-6.92-6.919a2.88 2.88 0 1 1 4.073-4.073zM73.4 48.787a6.387 6.387 0 0 1 0 9.023l-8.157 8.157a1.7 1.7 0 0 1-.187.162 1.75 1.75 0 0 1-2.256-2.672l8.122-8.122a2.88 2.88 0 0 0-4.074-4.073l-1.613 1.612a1.749 1.749 0 0 1-2.475 0l-1.609-1.609a2.88 2.88 0 0 0-4.073 4.073l3.543 3.542a1.75 1.75 0 0 1-2.475 2.475L54.6 57.813a6.38 6.38 0 0 1 9.023-9.023l.371.372.375-.375a6.389 6.389 0 0 1 9.031 0zm17.4 17.694a1.749 1.749 0 0 0 1.241-.514l8.157-8.157a6.387 6.387 0 0 0 0-9.023 6.378 6.378 0 0 0-9.022 0l-.375.375-.372-.372a6.38 6.38 0 1 0-9.029 9.023l8.158 8.157a1.739 1.739 0 0 0 1.236.511zM83.031 53.3a2.88 2.88 0 0 1 4.917-2.036l1.61 1.609a1.748 1.748 0 0 0 2.474 0l1.613-1.612a2.948 2.948 0 0 1 4.073 0 2.885 2.885 0 0 1 0 4.073L90.8 62.257l-6.92-6.92a2.861 2.861 0 0 1-.849-2.037zM37.75 36.28a1.75 1.75 0 0 1 1.75-1.75h1.125a1.75 1.75 0 0 1 0 3.5H39.5a1.749 1.749 0 0 1-1.75-1.75zm73.482 6.77v27.3a8.529 8.529 0 0 1-8.519 8.52H85.5a1.75 1.75 0 0 1 0-3.5h17.214a5.026 5.026 0 0 0 5.019-5.02v-27.3a5.026 5.026 0 0 0-5.019-5.02H48.25a1.75 1.75 0 0 1 0-3.5h54.463a8.529 8.529 0 0 1 8.519 8.52zM81.375 77.121a1.75 1.75 0 0 1-1.75 1.75h-1.25a1.75 1.75 0 0 1 0-3.5h1.25a1.749 1.749 0 0 1 1.75 1.75zm-8.51.782l-7.3 14.6a1.749 1.749 0 0 1-3.13 0l-6.817-13.632H25.287a8.529 8.529 0 0 1-8.519-8.52V43.05a8.529 8.529 0 0 1 8.519-8.52h7.046a1.75 1.75 0 0 1 0 3.5h-7.046a5.026 5.026 0 0 0-5.019 5.02v27.3a5.026 5.026 0 0 0 5.019 5.02H56.7a1.751 1.751 0 0 1 1.566.967L64 87.807l5.734-11.469a1.75 1.75 0 0 1 3.131 1.562z"
      fill="url(#a)"></path>
  </symbol>
  <symbol viewBox="-68 0 512 512.001"
    xmlns="http://www.w3.org/2000/svg"
    xmlns:xlink="http://www.w3.org/1999/xlink" id="hotel">
    <linearGradient id="a">
      <stop offset=".011" stop-color="#ffdc70"></stop>
      <stop offset=".087" stop-color="#f9c781"></stop>
      <stop offset=".172" stop-color="#f4b68f"></stop>
      <stop offset=".236" stop-color="#f2b094"></stop>
      <stop offset=".449" stop-color="#a0aec1"></stop>
      <stop offset=".697" stop-color="#98a7ad"></stop>
      <stop offset="1" stop-color="#497692"></stop>
    </linearGradient>
    <linearGradient id="b" gradientTransform="matrix(.86786 0 0 -.86786 -68.267 517.246)" gradientUnits="userSpaceOnUse" x1="420.995" x2="148.436" xlink:href="#a" y1="469.733" y2="197.174"></linearGradient>
    <linearGradient id="c" gradientTransform="matrix(.86786 0 0 -.86786 -68.267 517.246)" gradientUnits="userSpaceOnUse" x1="393.515" x2="63.261" xlink:href="#a" y1="478.22" y2="147.966"></linearGradient>
    <linearGradient id="d" gradientTransform="matrix(.86786 0 0 -.86786 -68.267 517.246)" gradientUnits="userSpaceOnUse" x1="426.897" x2="-15.708" xlink:href="#a" y1="491.937" y2="49.332"></linearGradient>
    <linearGradient id="e" gradientTransform="matrix(.86786 0 0 -.86786 -68.267 517.246)" gradientUnits="userSpaceOnUse" x1="357.716" x2="-53.093" xlink:href="#a" y1="511.25" y2="100.441"></linearGradient>
    <linearGradient id="f" gradientTransform="matrix(.86786 0 0 -.86786 -68.267 517.246)" gradientUnits="userSpaceOnUse" x1="391.907" x2="-18.902" xlink:href="#a" y1="506.11" y2="95.301"></linearGradient>
    <linearGradient id="g" gradientTransform="matrix(.86786 0 0 -.86786 -68.267 517.246)" gradientUnits="userSpaceOnUse" x1="426.097" x2="15.289" xlink:href="#a" y1="500.97" y2="90.162"></linearGradient>
    <linearGradient id="h" gradientTransform="matrix(.86786 0 0 -.86786 -68.267 517.246)" gradientUnits="userSpaceOnUse" x1="460.288" x2="49.479" xlink:href="#a" y1="495.83" y2="85.022"></linearGradient>
    <linearGradient id="i" gradientTransform="matrix(.86786 0 0 -.86786 -68.267 517.246)" gradientUnits="userSpaceOnUse" x1="366.264" x2="-44.545" xlink:href="#a" y1="509.965" y2="99.156"></linearGradient>
    <linearGradient id="j" gradientTransform="matrix(.86786 0 0 -.86786 -68.267 517.246)" gradientUnits="userSpaceOnUse" x1="520.121" x2="109.313" xlink:href="#a" y1="486.836" y2="76.027"></linearGradient>
    <linearGradient id="k" gradientTransform="matrix(.86786 0 0 -.86786 -68.267 517.246)" gradientUnits="userSpaceOnUse" x1="485.931" x2="75.122" xlink:href="#a" y1="491.976" y2="81.167"></linearGradient>
    <linearGradient id="l" gradientTransform="matrix(.86786 0 0 -.86786 -68.267 517.246)" gradientUnits="userSpaceOnUse" x1="278.427" x2="-231.639" xlink:href="#a" y1="529.71" y2="19.644"></linearGradient>
    <linearGradient id="m" gradientTransform="matrix(.86786 0 0 -.86786 -68.267 517.246)" gradientUnits="userSpaceOnUse" x1="233.954" x2="-77.479" xlink:href="#a" y1="510.27" y2="198.837"></linearGradient>
    <linearGradient id="n" gradientTransform="matrix(.86786 0 0 -.86786 -68.267 517.246)" gradientUnits="userSpaceOnUse" x1="617.04" x2="286.494" xlink:href="#a" y1="411.55" y2="81.004"></linearGradient>
    <linearGradient id="o" gradientTransform="matrix(.86786 0 0 -.86786 -68.267 517.246)" gradientUnits="userSpaceOnUse" x1="569.809" x2="299.938" xlink:href="#a" y1="349.704" y2="79.833"></linearGradient>
    <path d="M187.734 0C84.22 0 0 84.215 0 187.734 0 326.207 174.285 502.082 181.7 509.5a8.53 8.53 0 0 0 12.066 0c7.418-7.418 181.703-183.293 181.703-321.766C375.469 84.214 291.25 0 187.734 0zm0 491.191C156.727 458.59 17.066 305.207 17.066 187.734c0-94.109 76.559-170.668 170.668-170.668s170.668 76.559 170.668 170.668c-.004 117.414-139.675 270.856-170.668 303.457zm0 0"
      fill="url(#b)"></path>
    <path d="M341.332 187.734c0-84.691-68.906-153.601-153.598-153.601-84.695 0-153.601 68.91-153.601 153.601s68.906 153.598 153.601 153.598c84.692 0 153.598-68.906 153.598-153.598zM187.734 324.266c-75.285 0-136.535-61.25-136.535-136.532C51.2 112.45 112.45 51.2 187.734 51.2c75.282 0 136.532 61.25 136.532 136.535 0 75.282-61.25 136.532-136.532 136.532zm0 0"
      fill="url(#c)"></path>
    <path d="M290.133 136.531h-42.664v-25.597a8.531 8.531 0 0 0-8.535-8.536H136.535a8.529 8.529 0 0 0-8.535 8.536v68.265H85.332a8.528 8.528 0 0 0-8.531 8.535v59.73A8.528 8.528 0 0 0 85.332 256h204.8a8.529 8.529 0 0 0 8.536-8.535V145.066a8.531 8.531 0 0 0-8.535-8.535zM128 238.934H93.867v-42.668H128zm102.402-93.868v93.868h-85.336v-119.47h85.336zm51.2 93.868h-34.133v-85.336h34.133zm0 0"
      fill="url(#d)"></path>
    <path d="M162.133 136.531h17.066v17.067h-17.066zm0 0" fill="url(#e)"></path>
    <path d="M196.266 136.531h17.066v17.067h-17.066zm-34.133 34.137h17.066v17.066h-17.066zm0 0" fill="url(#f)"></path>
    <path d="M196.266 170.668h17.066v17.066h-17.066zM162.133 204.8h17.066v17.067h-17.066zm0 0" fill="url(#g)"></path>
    <path d="M196.266 204.8h17.066v17.067h-17.066zm0 0" fill="url(#h)"></path>
    <path d="M102.402 204.8h17.067v17.067h-17.067zm0 0" fill="url(#i)"></path>
    <path d="M256 204.8h17.066v17.067H256zm0 0" fill="url(#j)"></path>
    <path d="M256 170.668h17.066v17.066H256zm0 0" fill="url(#k)"></path>
    <path d="M187.734 76.8V59.735c-26.336 0-51.625 7.934-73.152 22.95l9.77 14C142.992 83.676 164.91 76.8 187.734 76.8zm0 0" fill="url(#l)"></path>
    <path d="M110.102 108.5l-11.95-12.2a128.478 128.478 0 0 0-21.285 27.427l14.766 8.546a110.994 110.994 0 0 1 18.469-23.773zm0 0" fill="url(#m)"></path>
    <path d="M249.965 369.434l12.07 12.066c17.465-17.465 34.48-42.89 35.2-43.965l-14.204-9.469c-.164.25-16.781 25.082-33.066 41.368zm0 0" fill="url(#n)"></path>
    <path d="M224.367 403.566l12.067 12.067 17.066-17.067-12.066-12.066zm0 0" fill="url(#o)"></path>
  </symbol>
  <symbol viewBox="0 0 128 128"
    xmlns="http://www.w3.org/2000/svg" id="vacation">
    <linearGradient id="a" gradientUnits="userSpaceOnUse" x1="107.385" x2="19.29" y1="125.93" y2="37.835">
      <stop offset="0" stop-color="#de176d"></stop>
      <stop offset="1" stop-color="#fdd743"></stop>
    </linearGradient>
    <path d="M115.42 113.67h-5.688l-4.2-18.3h2.715a1.75 1.75 0 0 0 1.75-1.75v-5.59h1.494a5.677 5.677 0 0 0 0-11.354H99.125a1.75 1.75 0 0 0 0 3.5h12.369a2.177 2.177 0 0 1 0 4.354H36.8a2.187 2.187 0 0 1-1.865-1.054L14.642 49.77a2.177 2.177 0 0 1 3.73-2.246l19.145 31.8a1.751 1.751 0 0 0 1.5.848h48.566a1.75 1.75 0 0 0 0-3.5H65.75V48.75a1.75 1.75 0 0 0-3.5 0v27.926H40.005L21.371 45.719a5.677 5.677 0 0 0-9.728 5.856l20.29 33.705a5.7 5.7 0 0 0 4.867 2.75h69.7v3.844h-85V88.03H27a1.75 1.75 0 1 0 0-3.5h-7.25A1.75 1.75 0 0 0 18 86.28v7.344a1.75 1.75 0 0 0 1.75 1.75h7.55l-4.2 18.3h-1.242l3.153-13.747a1.75 1.75 0 0 0-3.411-.782l-3.332 14.525H12.58a1.75 1.75 0 1 0 0 3.5h11.915a1.748 1.748 0 0 0 1.7-1.344c0-.006.007-.008.008-.015l1.451-6.326c3.355.071 11.2.1 20.853.1 4.308 0 8.971-.005 13.745-.014v4.1H32.167a1.75 1.75 0 0 0 0 3.5h83.253a1.75 1.75 0 0 0 0-3.5zm-9.279 0H104.9l-1.452-6.328v-.013l-1.878-8.188a1.75 1.75 0 0 0-3.411.782l1.384 6.031c-10.419.041-22.491.08-33.788.1v-10.68h36.195zm-77.694-7.652l2.442-10.644H62.25v10.692c-15.43.027-28.867.022-33.803-.048zm37.3 3.544c12.651-.027 25.655-.074 34.59-.11l.968 4.218H65.75zM29.344 48.986h.173a1.75 1.75 0 0 0 1.728-1.474 10.849 10.849 0 0 1 20.2-3.547 1.75 1.75 0 0 0 3.059 0A10.877 10.877 0 0 1 59.5 39.37V43a1.75 1.75 0 0 0 1.75 1.75h5.5A1.75 1.75 0 0 0 68.5 43v-3.63a10.877 10.877 0 0 1 4.993 4.594 1.75 1.75 0 0 0 3.059 0 10.849 10.849 0 0 1 20.2 3.547 1.75 1.75 0 0 0 1.728 1.474h.173a1.75 1.75 0 0 0 1.75-1.75 36.426 36.426 0 0 0-50.574-33.544 1.75 1.75 0 0 0 1.363 3.224 32.585 32.585 0 0 1 6.727-2.015c-6.905 6.807-7.694 16.65-7.359 22.858a14.358 14.358 0 0 0-18.314.879 33.011 33.011 0 0 1 9.41-15.554 1.75 1.75 0 0 0-2.377-2.568 36.523 36.523 0 0 0-11.685 26.721 1.75 1.75 0 0 0 1.75 1.75zM65 41.25h-2v-2.809c.332-.031.663-.068 1-.068s.668.037 1 .068zm-1-26.66c5.913 3.526 9.24 9.553 9.893 17.929a1.75 1.75 0 1 0 3.489-.272c-.567-7.27-3.073-13.154-7.317-17.349a33.007 33.007 0 0 1 25.7 23.749 14.38 14.38 0 0 0-20.747 1.39 14.394 14.394 0 0 0-7.886-4.814c-.034-.008-.069-.012-.1-.017a14.079 14.079 0 0 0-6.094 0c-.02 0-.041.006-.061.01a14.386 14.386 0 0 0-6.739 3.589C53.6 32.521 54.057 20.535 64 14.59zm-20.621 4.737a1.75 1.75 0 0 1 .485-2.427l.461-.3a1.75 1.75 0 0 1 1.894 2.943l-.413.271a1.75 1.75 0 0 1-2.427-.485zM93.75 76.676a1.75 1.75 0 0 1 0 3.5h-1a1.75 1.75 0 0 1 0-3.5z"
      fill="url(#a)"></path>
  </symbol>
</svg>