<?xml version="1.0"?>
<svg
  xmlns="http://www.w3.org/2000/svg"
  xmlns:xlink="http://www.w3.org/1999/xlink" width="512" height="512" viewBox="0 0 128 128">
  <defs>
    <linearGradient id="a" x1="88.719" y1="92.218" x2="20.532" y2="24.031" gradientUnits="userSpaceOnUse">
      <stop offset="0" stop-color="#5360d9"/>
      <stop offset="1" stop-color="#79d5dd"/>
    </linearGradient>
  </defs>
  <path d="M39.249,92.876a14.228,14.228,0,0,0-20.066-19.5,1.75,1.75,0,0,0,2.027,2.854,10.7,10.7,0,1,1-4,5.433,1.75,1.75,0,0,0-3.33-1.08,14.234,14.234,0,0,0,1.707,12.3A13.771,13.771,0,0,0,4.75,106.31v15.15a1.75,1.75,0,0,0,1.75,1.75H48.34a1.75,1.75,0,0,0,1.75-1.75V106.31A13.771,13.771,0,0,0,39.249,92.876ZM46.59,119.71H8.25v-13.4A10.261,10.261,0,0,1,18.5,96.06h.006a14.174,14.174,0,0,0,17.823,0h.011a10.261,10.261,0,0,1,10.25,10.25ZM123.25,18.5V33.583a1.75,1.75,0,0,1-3.5,0V18.5A10.261,10.261,0,0,0,109.5,8.25h-64A10.261,10.261,0,0,0,35.25,18.5V52A10.261,10.261,0,0,0,45.5,62.25h6.618a1.751,1.751,0,0,1,1.735,1.515c.642,4.739.721,11.207-.722,16.129a26.29,26.29,0,0,0,16.39-16.418A1.75,1.75,0,0,1,71.19,62.25H109.5A10.261,10.261,0,0,0,119.75,52V48.625a1.75,1.75,0,0,1,3.5,0V52A13.765,13.765,0,0,1,109.5,65.75H72.442A29.445,29.445,0,0,1,50.5,84.193a1.749,1.749,0,0,1-1.836-2.609c1.839-3.111,2.567-9.339,1.9-15.834H45.5A13.765,13.765,0,0,1,31.75,52V18.5A13.765,13.765,0,0,1,45.5,4.75h64A13.765,13.765,0,0,1,123.25,18.5Zm0,21.25v2.917a1.75,1.75,0,0,1-3.5,0V39.75a1.75,1.75,0,0,1,3.5,0Zm-28-4.5A4.75,4.75,0,1,0,100,30.5,4.756,4.756,0,0,0,95.25,35.25Zm6,0A1.25,1.25,0,1,1,100,34,1.252,1.252,0,0,1,101.25,35.25Zm-21,0A4.75,4.75,0,1,0,85,30.5,4.756,4.756,0,0,0,80.25,35.25Zm6,0A1.25,1.25,0,1,1,85,34,1.252,1.252,0,0,1,86.25,35.25Zm-21,0A4.75,4.75,0,1,0,70,30.5,4.756,4.756,0,0,0,65.25,35.25Zm6,0A1.25,1.25,0,1,1,70,34,1.252,1.252,0,0,1,71.25,35.25Zm-21,0A4.75,4.75,0,1,0,55,30.5,4.756,4.756,0,0,0,50.25,35.25Zm6,0A1.25,1.25,0,1,1,55,34,1.252,1.252,0,0,1,56.25,35.25Z" fill="url(#a)"/>
</svg>
