<svg height="512" viewBox="0 0 128 128" width="512"
  xmlns="http://www.w3.org/2000/svg"
  xmlns:xlink="http://www.w3.org/1999/xlink">
  <linearGradient id="a" gradientUnits="userSpaceOnUse" x1="96.203" x2="31.797" y1="88.904" y2="24.497">
    <stop offset="0" stop-color="#b373f0"/>
    <stop offset="1" stop-color="#01ebcd"/>
  </linearGradient>
  <path d="m27.808 48.79a6.387 6.387 0 0 0 0 9.023l8.157 8.157a1.753 1.753 0 0 0 2.477 0l8.158-8.16a6.38 6.38 0 1 0 -9.023-9.023l-.375.375-.372-.372a6.378 6.378 0 0 0 -9.022 0zm8.157 4.084a1.748 1.748 0 0 0 2.474 0l1.613-1.612a2.947 2.947 0 0 1 4.073 0 2.879 2.879 0 0 1 0 4.073l-6.925 6.922-6.92-6.919a2.88 2.88 0 1 1 4.073-4.073zm37.435-4.087a6.387 6.387 0 0 1 0 9.023l-8.157 8.157a1.7 1.7 0 0 1 -.187.162 1.75 1.75 0 0 1 -2.256-2.672l8.122-8.122a2.88 2.88 0 0 0 -4.074-4.073l-1.613 1.612a1.749 1.749 0 0 1 -2.475 0l-1.609-1.609a2.88 2.88 0 0 0 -4.073 4.073l3.543 3.542a1.75 1.75 0 0 1 -2.475 2.475l-3.546-3.542a6.38 6.38 0 0 1 9.023-9.023l.371.372.375-.375a6.389 6.389 0 0 1 9.031 0zm17.4 17.694a1.749 1.749 0 0 0 1.241-.514l8.157-8.157a6.387 6.387 0 0 0 0-9.023 6.378 6.378 0 0 0 -9.022 0l-.375.375-.372-.372a6.38 6.38 0 1 0 -9.029 9.023l8.158 8.157a1.739 1.739 0 0 0 1.236.511zm-7.769-13.181a2.88 2.88 0 0 1 4.917-2.036l1.61 1.609a1.748 1.748 0 0 0 2.474 0l1.613-1.612a2.948 2.948 0 0 1 4.073 0 2.885 2.885 0 0 1 0 4.073l-6.918 6.923-6.92-6.92a2.861 2.861 0 0 1 -.849-2.037zm-45.281-17.02a1.75 1.75 0 0 1 1.75-1.75h1.125a1.75 1.75 0 0 1 0 3.5h-1.125a1.749 1.749 0 0 1 -1.75-1.75zm73.482 6.77v27.3a8.529 8.529 0 0 1 -8.519 8.52h-17.213a1.75 1.75 0 0 1 0-3.5h17.214a5.026 5.026 0 0 0 5.019-5.02v-27.3a5.026 5.026 0 0 0 -5.019-5.02h-54.464a1.75 1.75 0 0 1 0-3.5h54.463a8.529 8.529 0 0 1 8.519 8.52zm-29.857 34.071a1.75 1.75 0 0 1 -1.75 1.75h-1.25a1.75 1.75 0 0 1 0-3.5h1.25a1.749 1.749 0 0 1 1.75 1.75zm-8.51.782-7.3 14.6a1.749 1.749 0 0 1 -3.13 0l-6.817-13.632h-30.331a8.529 8.529 0 0 1 -8.519-8.52v-27.301a8.529 8.529 0 0 1 8.519-8.52h7.046a1.75 1.75 0 0 1 0 3.5h-7.046a5.026 5.026 0 0 0 -5.019 5.02v27.3a5.026 5.026 0 0 0 5.019 5.02h31.413a1.751 1.751 0 0 1 1.566.967l5.734 11.47 5.734-11.469a1.75 1.75 0 0 1 3.131 1.562z" fill="url(#a)"/>
</svg>