<svg aria-hidden="true" style="position: absolute; width: 0; height: 0; overflow: hidden;" version="1.1"
    xmlns="http://www.w3.org/2000/svg"
    xmlns:xlink="http://www.w3.org/1999/xlink">
    <defs>
        <symbol id="icon-clock" viewBox="0 0 32 32">
            <title>clock</title>
            <path d="M27.314 4.686c-3.022-3.022-7.040-4.686-11.314-4.686s-8.292 1.664-11.314 4.686c-3.022 3.022-4.686 7.040-4.686 11.314s1.664 8.292 4.686 11.314c3.022 3.022 7.040 4.686 11.314 4.686s8.292-1.664 11.314-4.686c3.022-3.022 4.686-7.040 4.686-11.314s-1.664-8.292-4.686-11.314zM26.651 26.651c-2.845 2.845-6.627 4.412-10.651 4.412s-7.806-1.567-10.651-4.412-4.412-6.627-4.412-10.651 1.567-7.806 4.412-10.651 6.627-4.412 10.651-4.412 7.806 1.567 10.651 4.412 4.412 6.627 4.412 10.651-1.567 7.806-4.412 10.651z"></path>
            <path d="M16 12.525c-0.259 0-0.469 0.21-0.469 0.469v1.612c-0.064 0.021-0.126 0.047-0.185 0.077l-5.277-5.277c-0.183-0.183-0.48-0.183-0.663 0s-0.183 0.48 0 0.663l5.277 5.277c-0.098 0.197-0.154 0.419-0.154 0.654 0 0.647 0.42 1.198 1.002 1.394v7.463c0 0.259 0.21 0.469 0.469 0.469s0.469-0.21 0.469-0.469v-7.463c0.064-0.021 0.126-0.047 0.185-0.077l1.175 1.175c0.091 0.091 0.212 0.137 0.331 0.137s0.24-0.046 0.331-0.137c0.183-0.183 0.183-0.48 0-0.663l-1.175-1.175c0.098-0.197 0.154-0.419 0.154-0.654 0-0.647-0.42-1.197-1.002-1.394v-1.612c0-0.259-0.21-0.469-0.469-0.469zM16 16.533c-0.294 0-0.533-0.239-0.533-0.533s0.239-0.533 0.533-0.533 0.533 0.239 0.533 0.533-0.239 0.533-0.533 0.533z"></path>
            <path d="M24.521 25.89c-0.503 0.435-1.036 0.827-1.591 1.175l-0.762-1.32c-0.129-0.224-0.416-0.301-0.64-0.172s-0.301 0.416-0.172 0.64l0.763 1.321c-1.734 0.922-3.661 1.442-5.65 1.513v-1.525c0-0.259-0.21-0.469-0.469-0.469s-0.469 0.21-0.469 0.469v1.525c-1.998-0.070-3.923-0.593-5.651-1.51l0.764-1.324c0.129-0.224 0.053-0.511-0.172-0.64s-0.511-0.053-0.64 0.172l-0.764 1.323c-0.826-0.518-1.599-1.132-2.302-1.835s-1.316-1.476-1.835-2.302l1.324-0.764c0.224-0.129 0.301-0.416 0.172-0.64s-0.416-0.301-0.64-0.172l-1.324 0.764c-0.918-1.728-1.44-3.654-1.51-5.651h1.525c0.259 0 0.469-0.21 0.469-0.469s-0.21-0.469-0.469-0.469h-1.525c0.071-1.988 0.591-3.915 1.513-5.65l1.321 0.763c0.074 0.043 0.154 0.063 0.234 0.063 0.162 0 0.32-0.084 0.406-0.234 0.129-0.224 0.053-0.511-0.172-0.64l-1.321-0.762c0.349-0.556 0.741-1.088 1.175-1.591 0.169-0.196 0.147-0.492-0.048-0.661s-0.492-0.147-0.661 0.048c-2.304 2.669-3.507 6.085-3.386 9.62 0.122 3.553 1.574 6.895 4.089 9.41s5.857 3.968 9.411 4.089c0.162 0.006 0.324 0.008 0.485 0.008 3.361-0 6.588-1.196 9.135-3.394 0.196-0.169 0.218-0.465 0.048-0.661s-0.465-0.218-0.661-0.049z"></path>
            <path d="M29.986 15.514c-0.122-3.553-1.574-6.895-4.089-9.411s-5.857-3.968-9.41-4.089c-3.535-0.121-6.951 1.082-9.62 3.386-0.196 0.169-0.218 0.465-0.048 0.661s0.465 0.218 0.661 0.048c0.503-0.435 1.036-0.827 1.592-1.175l0.762 1.32c0.087 0.15 0.244 0.234 0.406 0.234 0.079 0 0.16-0.020 0.234-0.063 0.224-0.129 0.301-0.416 0.172-0.64l-0.763-1.321c1.735-0.922 3.662-1.442 5.65-1.513v1.525c0 0.259 0.21 0.469 0.469 0.469s0.469-0.21 0.469-0.469v-1.525c1.998 0.071 3.923 0.592 5.651 1.51l-0.764 1.324c-0.129 0.224-0.053 0.511 0.172 0.64 0.074 0.043 0.154 0.063 0.234 0.063 0.162 0 0.32-0.084 0.406-0.234l0.764-1.324c0.826 0.518 1.599 1.132 2.302 1.835s1.316 1.476 1.835 2.302l-1.323 0.764c-0.224 0.129-0.301 0.416-0.172 0.64 0.087 0.15 0.244 0.234 0.406 0.234 0.079 0 0.16-0.020 0.234-0.063l1.324-0.764c0.918 1.728 1.44 3.654 1.51 5.651h-1.525c-0.259 0-0.469 0.21-0.469 0.469s0.21 0.469 0.469 0.469h1.525c-0.071 1.988-0.591 3.915-1.513 5.65l-1.321-0.763c-0.224-0.13-0.511-0.053-0.64 0.172s-0.053 0.511 0.172 0.64l1.32 0.762c-0.349 0.556-0.741 1.088-1.175 1.591-0.169 0.196-0.148 0.492 0.048 0.661 0.089 0.076 0.198 0.114 0.306 0.114 0.131 0 0.262-0.055 0.355-0.162 2.304-2.669 3.507-6.085 3.386-9.62z"></path>
        </symbol>
        <symbol id="icon-crm" viewBox="0 0 32 32">
            <title>crm</title>
            <path d="M28.813 25.384c0.72-0.549 1.187-1.412 1.187-2.384 0-1.483-1.084-2.715-2.5-2.955v-0.545c0-1.378-1.122-2.5-2.5-2.5h-8.5v-1.822c0.27 0.206 0.595 0.322 0.939 0.322 0.842 0 1.526-0.671 1.555-1.505 0.816-0.029 1.471-0.684 1.5-1.5 0.816-0.029 1.471-0.684 1.5-1.5 0.834-0.030 1.506-0.713 1.506-1.555 0-0.417-0.163-0.809-0.457-1.104l-0.104-0.104c0.687-0.843 1.061-1.887 1.061-2.989 0-2.615-2.128-4.742-4.742-4.742-1.224 0-2.373 0.464-3.258 1.302-0.884-0.838-2.034-1.302-3.258-1.302-2.615 0-4.742 2.127-4.742 4.742 0 1.229 0.467 2.383 1.313 3.269-0.2 0.268-0.313 0.588-0.313 0.928 0 0.842 0.671 1.526 1.505 1.555 0.029 0.816 0.684 1.471 1.5 1.5 0.029 0.816 0.684 1.471 1.5 1.5 0.030 0.835 0.713 1.505 1.555 1.505 0.152 0 0.298-0.028 0.44-0.070v1.57h-8.5c-1.378 0-2.5 1.122-2.5 2.5v0.545c-1.417 0.239-2.5 1.471-2.5 2.955 0 0.973 0.468 1.836 1.187 2.384-1.58 0.699-2.687 2.279-2.687 4.116v2h9v-2c0-1.836-1.107-3.416-2.687-4.116 0.72-0.549 1.187-1.412 1.187-2.384 0-1.483-1.083-2.715-2.5-2.955v-0.545c0-0.827 0.673-1.5 1.5-1.5h8.5v2.045c-1.416 0.239-2.5 1.471-2.5 2.955 0 0.973 0.467 1.836 1.187 2.384-1.58 0.699-2.687 2.279-2.687 4.116v2h9v-2c0-1.836-1.107-3.416-2.687-4.116 0.72-0.549 1.187-1.412 1.187-2.384 0-1.483-1.084-2.715-2.5-2.955v-2.045h8.5c0.827 0 1.5 0.673 1.5 1.5v0.545c-1.416 0.239-2.5 1.471-2.5 2.955 0 0.973 0.468 1.836 1.187 2.384-1.58 0.699-2.687 2.279-2.687 4.116v2h9v-2c0-1.836-1.107-3.416-2.687-4.116zM19.258 1.5c2.064 0 3.742 1.679 3.742 3.742 0 0.835-0.274 1.625-0.775 2.275l-2.299-2.299c0.149-0.112 0.294-0.231 0.428-0.365l-0.707-0.707c-0.551 0.551-1.282 0.854-2.061 0.854h-0.793l-0.854 0.854c-0.095 0.095-0.22 0.146-0.354 0.146h-1.879c-0.114 0-0.207-0.093-0.207-0.207 0-0.054 0.022-0.108 0.060-0.146l3.050-3.050c0.707-0.707 1.646-1.096 2.646-1.096zM12.742 1.5c0.954 0 1.851 0.358 2.546 1.005l-2.435 2.435c-0.227 0.228-0.353 0.531-0.353 0.854 0 0.665 0.541 1.207 1.207 1.207h1.879c0.4 0 0.778-0.156 1.061-0.439l0.561-0.561h0.378c0.5 0 0.983-0.096 1.434-0.273l3.316 3.316c0.105 0.106 0.164 0.246 0.164 0.396 0 0.309-0.252 0.56-0.561 0.56-0.15 0-0.291-0.059-0.396-0.164l-1.189-1.19-0.707 0.707 1.189 1.19c0.105 0.106 0.164 0.246 0.164 0.396 0 0.309-0.252 0.56-0.561 0.56-0.15 0-0.291-0.059-0.396-0.164l-1.189-1.19-0.707 0.707 1.189 1.19c0.105 0.106 0.164 0.246 0.164 0.396 0 0.309-0.252 0.56-0.561 0.56-0.15 0-0.291-0.059-0.396-0.164l-1.189-1.19-0.707 0.707 1.189 1.19c0.105 0.106 0.164 0.246 0.164 0.396 0 0.309-0.252 0.56-0.561 0.56-0.15 0-0.291-0.059-0.396-0.164l-0.167-0.167c0.081-0.19 0.124-0.396 0.124-0.608 0-0.842-0.671-1.526-1.505-1.555-0.029-0.816-0.684-1.471-1.5-1.5-0.029-0.816-0.684-1.471-1.5-1.5-0.030-0.835-0.713-1.505-1.555-1.505-0.336 0-0.653 0.11-0.919 0.306-0.657-0.697-1.021-1.601-1.021-2.563 0-2.063 1.679-3.743 3.742-3.743zM10 9.44c0-0.15 0.059-0.29 0.164-0.396l0.379-0.379c0.106-0.105 0.246-0.164 0.396-0.164 0.309 0 0.56 0.252 0.56 0.56 0 0.15-0.059 0.29-0.164 0.396l-0.379 0.379c-0.106 0.105-0.246 0.164-0.396 0.164-0.309 0-0.56-0.252-0.56-0.56zM11.5 10.94c0-0.15 0.059-0.29 0.164-0.396l0.379-0.379c0.106-0.105 0.246-0.164 0.396-0.164 0.309 0 0.56 0.252 0.56 0.56 0 0.15-0.059 0.29-0.164 0.396l-0.379 0.379c-0.106 0.105-0.246 0.164-0.396 0.164-0.309 0-0.56-0.252-0.56-0.56zM13 12.44c0-0.15 0.059-0.29 0.164-0.396l0.379-0.379c0.106-0.105 0.246-0.164 0.396-0.164 0.309 0 0.56 0.252 0.56 0.56 0 0.15-0.059 0.29-0.164 0.396l-0.379 0.379c-0.106 0.105-0.246 0.164-0.396 0.164-0.309 0-0.56-0.252-0.56-0.56zM15.060 14.5c-0.309 0-0.56-0.252-0.56-0.56 0-0.15 0.059-0.29 0.164-0.396l0.379-0.379c0.106-0.105 0.246-0.164 0.396-0.164 0.309 0 0.56 0.252 0.56 0.56 0 0.15-0.059 0.29-0.164 0.396l-0.379 0.379c-0.106 0.105-0.246 0.164-0.396 0.164zM8.5 29.5v1h-1v-2h-1v2h-3v-2h-1v2h-1v-1c0-1.93 1.57-3.5 3.5-3.5s3.5 1.57 3.5 3.5zM7 23c0 1.103-0.897 2-2 2s-2-0.897-2-2 0.897-2 2-2 2 0.897 2 2zM19.5 29.5v1h-1v-2h-1v2h-3v-2h-1v2h-1v-1c0-1.93 1.57-3.5 3.5-3.5s3.5 1.57 3.5 3.5zM18 23c0 1.103-0.897 2-2 2s-2-0.897-2-2 0.897-2 2-2 2 0.897 2 2zM25 23c0-1.103 0.897-2 2-2s2 0.897 2 2-0.897 2-2 2-2-0.897-2-2zM30.5 30.5h-1v-2h-1v2h-3v-2h-1v2h-1v-1c0-1.93 1.57-3.5 3.5-3.5s3.5 1.57 3.5 3.5z"></path>
            <path d="M19 19h1v1h-1z"></path>
            <path d="M21 19h1v1h-1z"></path>
            <path d="M23 19h1v1h-1z"></path>
            <path d="M8 19h1v1h-1z"></path>
            <path d="M10 19h1v1h-1z"></path>
            <path d="M12 19h1v1h-1z"></path>
        </symbol>
        <symbol id="icon-likes" viewBox="0 0 32 32">
            <title>likes</title>
            <path d="M29.875 2.91h-19.668c-0.259 0-0.468 0.21-0.468 0.468s0.21 0.468 0.468 0.468h19.668c0.655 0 1.188 0.533 1.188 1.188v13.749c0 0.655-0.533 1.188-1.188 1.188h-1.061v-11.228c0-1.15-0.936-2.086-2.086-2.086h-22.443v-1.623c0-0.655 0.533-1.188 1.188-1.188h2.563c0.259 0 0.468-0.21 0.468-0.468s-0.21-0.468-0.468-0.468h-2.563c-1.172 0-2.125 0.953-2.125 2.125v1.622h-1.262c-1.15 0-2.086 0.936-2.086 2.086v13.446c0 1.15 0.936 2.086 2.086 2.086h2.060c0.080 0 0.151 0.054 0.173 0.13l1.126 3.877c0.113 0.39 0.429 0.688 0.825 0.778 0.082 0.019 0.165 0.028 0.248 0.028 0.314 0 0.618-0.133 0.833-0.372l3.925-4.381c0.034-0.038 0.083-0.060 0.135-0.060h6.859c0.259 0 0.468-0.21 0.468-0.468s-0.21-0.468-0.468-0.468h-6.859c-0.317 0-0.621 0.136-0.832 0.372l-3.925 4.381c-0.062 0.069-0.136 0.064-0.175 0.056s-0.108-0.037-0.133-0.126l-1.126-3.877c-0.138-0.474-0.579-0.806-1.073-0.806h-2.060c-0.634 0-1.149-0.516-1.149-1.149v-13.446c0-0.634 0.516-1.149 1.149-1.149h24.642c0.634 0 1.149 0.516 1.149 1.149v13.446c0 0.634-0.515 1.149-1.149 1.149h-6.286c-0.259 0-0.468 0.21-0.468 0.468s0.21 0.468 0.468 0.468h6.286c1.15 0 2.086-0.936 2.086-2.086v-1.281h1.061c1.172 0 2.125-0.953 2.125-2.125v-13.749c0-1.172-0.953-2.125-2.125-2.125z"></path>
            <path d="M11.108 10.932c-0.361 0.226-0.667 0.515-0.901 0.844-0.234-0.329-0.539-0.618-0.901-0.844-1.412-0.885-2.934-0.739-4.072 0.39-0.639 0.634-1.009 1.529-1.015 2.456-0.022 3.389 2.735 5.004 5.167 6.429 0.151 0.088 0.301 0.176 0.449 0.264 0.114 0.068 0.243 0.101 0.371 0.101s0.256-0.034 0.371-0.101c0.148-0.088 0.298-0.176 0.449-0.264 2.432-1.425 5.189-3.041 5.167-6.429-0.006-0.927-0.376-1.822-1.015-2.456-1.138-1.13-2.66-1.275-4.072-0.39zM15.258 13.784c0.018 2.848-2.382 4.255-4.704 5.615-0.116 0.068-0.232 0.136-0.347 0.203-0.115-0.068-0.23-0.135-0.347-0.203-2.322-1.36-4.723-2.767-4.704-5.615 0.004-0.681 0.273-1.336 0.738-1.797 0.46-0.456 0.996-0.687 1.56-0.687 0.442 0 0.901 0.141 1.354 0.425 0.433 0.271 0.749 0.662 0.891 1.1 0.071 0.22 0.275 0.368 0.507 0.368h0c0.232 0 0.436-0.148 0.507-0.368 0.142-0.438 0.459-0.829 0.891-1.1 1.033-0.647 2.095-0.552 2.915 0.261 0.464 0.461 0.733 1.116 0.738 1.797z"></path>
            <path d="M20.477 20.294l4.078-9.276c0.064-0.145 0.050-0.312-0.037-0.445s-0.234-0.212-0.392-0.212h-5.103c-0.259 0-0.468 0.21-0.468 0.468s0.21 0.468 0.468 0.468h4.386l-3.789 8.619c-0.104 0.237 0.003 0.513 0.24 0.617 0.061 0.027 0.125 0.040 0.188 0.040 0.18 0 0.352-0.105 0.429-0.28z"></path>
        </symbol>
        <symbol id="icon-project" viewBox="0 0 32 32">
            <title>project</title>
            <path d="M18.408 7.579l1.488 0.262c0.015 0.109 0.034 0.218 0.057 0.326l-1.308 0.755c-0.382 0.22-0.513 0.71-0.293 1.092l0.758 1.313c0.22 0.382 0.709 0.514 1.092 0.292l1.308-0.755c0.082 0.074 0.167 0.145 0.254 0.213l-0.517 1.419c-0.151 0.415 0.063 0.874 0.478 1.025l1.424 0.518c0.415 0.151 0.873-0.063 1.024-0.478l0.517-1.419c0.111 0.004 0.22 0.004 0.331 0l0.517 1.419c0.15 0.413 0.608 0.63 1.024 0.478l1.424-0.518c0.415-0.151 0.629-0.609 0.478-1.024l-0.517-1.419c0.087-0.068 0.171-0.139 0.253-0.213l1.308 0.755c0.383 0.221 0.872 0.089 1.092-0.292l0.758-1.313c0.22-0.382 0.089-0.871-0.292-1.092l-1.308-0.755c0.023-0.108 0.042-0.217 0.057-0.326l1.487-0.262c0.434-0.076 0.725-0.492 0.648-0.926l-0.263-1.492c-0.077-0.434-0.49-0.725-0.926-0.648l-1.487 0.262c-0.052-0.097-0.107-0.193-0.166-0.287l0.971-1.157c0.284-0.338 0.24-0.842-0.098-1.126l-1.161-0.974c-0.338-0.283-0.843-0.239-1.126 0.098l-0.97 1.157c-0.103-0.041-0.207-0.079-0.312-0.114v-1.51c0-0.441-0.358-0.799-0.799-0.799h-1.515c-0.441 0-0.799 0.359-0.799 0.799v1.51c-0.105 0.034-0.209 0.072-0.312 0.114l-0.97-1.157c-0.283-0.337-0.789-0.382-1.126-0.098l-1.161 0.974c-0.339 0.284-0.383 0.788-0.099 1.126l0.971 1.157c-0.058 0.094-0.114 0.19-0.166 0.287l-1.487-0.262c-0.435-0.077-0.849 0.213-0.926 0.648l-0.263 1.492c-0.076 0.434 0.214 0.849 0.648 0.926zM18.926 5.465l1.695 0.299c0.213 0.037 0.425-0.075 0.513-0.273 0.118-0.266 0.265-0.52 0.437-0.756 0.128-0.175 0.12-0.415-0.019-0.581l-1.107-1.319 0.942-0.79 1.106 1.319c0.139 0.166 0.375 0.216 0.569 0.12 0.261-0.129 0.537-0.229 0.82-0.299 0.211-0.052 0.359-0.241 0.359-0.458v-1.721h1.229v1.721c0 0.217 0.148 0.406 0.359 0.458 0.283 0.069 0.559 0.17 0.82 0.298 0.195 0.096 0.43 0.046 0.569-0.12l1.106-1.319 0.941 0.79-1.107 1.319c-0.14 0.166-0.147 0.406-0.019 0.581 0.172 0.236 0.319 0.49 0.437 0.756 0.088 0.198 0.299 0.311 0.513 0.273l1.695-0.299 0.213 1.21-1.696 0.299c-0.214 0.038-0.374 0.217-0.388 0.433-0.019 0.292-0.070 0.581-0.151 0.86-0.060 0.208 0.029 0.431 0.217 0.539l1.491 0.861-0.614 1.064-1.491-0.861c-0.188-0.108-0.425-0.075-0.576 0.082-0.202 0.21-0.427 0.399-0.669 0.562-0.18 0.121-0.254 0.349-0.18 0.553l0.589 1.618-1.155 0.42-0.589-1.618c-0.074-0.204-0.277-0.331-0.493-0.307-0.291 0.031-0.583 0.031-0.874 0-0.216-0.023-0.419 0.104-0.493 0.307l-0.589 1.618-1.155-0.42 0.589-1.618c0.074-0.204-0-0.432-0.18-0.553-0.242-0.162-0.467-0.351-0.669-0.562-0.15-0.156-0.388-0.19-0.575-0.082l-1.492 0.861-0.614-1.064 1.491-0.861c0.188-0.108 0.277-0.331 0.217-0.539-0.081-0.279-0.131-0.568-0.15-0.86-0.014-0.217-0.175-0.395-0.388-0.433l-1.696-0.299z"></path>
            <path d="M24.856 10.731c3.241 0 4.889-3.94 2.587-6.243-1.426-1.426-3.747-1.426-5.173 0-2.3 2.3-0.657 6.243 2.587 6.243zM24.856 4.361c2.408 0 3.628 2.927 1.92 4.635-1.059 1.059-2.782 1.059-3.84 0-1.708-1.707-0.488-4.635 1.92-4.635z"></path>
            <path d="M26.294 8.513c0.795-0.795 0.795-2.082 0-2.877-1.271-1.271-3.473-0.379-3.473 1.438 0 1.819 2.203 2.709 3.473 1.438zM24.856 5.983c0.976 0 1.453 1.182 0.772 1.864-0.688 0.688-1.864 0.194-1.864-0.772 0-0.603 0.488-1.092 1.092-1.092z"></path>
            <path d="M14.622 19.145c0-0.724 0.2-1.77 1.152-2.64 3.44-3.143 3.053-8.699-0.839-11.322-0.216-0.146-0.509-0.088-0.654 0.127s-0.088 0.509 0.127 0.654c3.394 2.286 3.712 7.119 0.73 9.844-0.219 0.2-0.406 0.407-0.567 0.618h-7.335c-0.157-0.21-0.342-0.417-0.558-0.614-4.229-3.855-1.474-10.893 4.227-10.916 0.66 0 1.31 0.102 1.932 0.303 0.248 0.080 0.513-0.056 0.594-0.304s-0.056-0.513-0.304-0.593c-2.446-0.791-5.284-0.251-7.303 1.752-2.977 2.955-2.791 7.711 0.219 10.454 1.358 1.238 1.144 2.642 1.144 4.832 0 2.783 2.962 4.579 5.426 3.303 0.231-0.12 0.322-0.404 0.202-0.635s-0.404-0.322-0.635-0.202c-1.837 0.951-4.050-0.387-4.050-2.466v-1.465h5.551v1.465c0 0.478-0.124 0.949-0.357 1.363-0.128 0.227-0.048 0.514 0.178 0.642s0.514 0.048 0.642-0.178c0.313-0.555 0.479-1.186 0.479-1.827 0-2.275-0.002-2.198-0.002-2.198zM13.683 18.936h-5.553c-0.022-0.389-0.105-0.958-0.358-1.565h6.254c-0.234 0.558-0.323 1.103-0.343 1.565z"></path>
            <path d="M10.906 2.963c0.26 0 0.471-0.211 0.471-0.471v-1.958c0-0.26-0.211-0.471-0.471-0.471s-0.471 0.211-0.471 0.471v1.958c0 0.26 0.211 0.471 0.471 0.471z"></path>
            <path d="M4.666 5.505c0.416 0 0.631-0.507 0.333-0.804l-1.384-1.385c-0.184-0.184-0.482-0.184-0.667 0s-0.184 0.483 0 0.667c1.465 1.465 1.454 1.522 1.718 1.522z"></path>
            <path d="M2.9 11.242c0-0.26-0.211-0.471-0.471-0.471h-1.958c-0.26 0-0.471 0.211-0.471 0.471s0.211 0.471 0.471 0.471h1.958c0.26 0 0.471-0.211 0.471-0.471z"></path>
            <path d="M4.261 17.148l-1.384 1.384c-0.184 0.184-0.184 0.482 0 0.666s0.482 0.184 0.667 0l1.384-1.385c0.184-0.184 0.184-0.482 0-0.666s-0.482-0.184-0.667 0z"></path>
            <path d="M31.291 24.323c0.466-0.082 0.778-0.528 0.696-0.994 0 0-0.31-1.758-0.31-1.758-0.082-0.466-0.528-0.778-0.994-0.696l-1.812 0.32c-0.078-0.15-0.163-0.296-0.253-0.438l1.183-1.409c0.305-0.363 0.258-0.904-0.106-1.208l-1.367-1.147c-0.362-0.304-0.904-0.257-1.208 0.106l-1.182 1.409c-0.156-0.064-0.315-0.122-0.476-0.173v-1.839c0-0.473-0.385-0.858-0.858-0.858h-1.785c-0.473 0-0.858 0.385-0.858 0.858v1.839c-0.161 0.051-0.32 0.109-0.476 0.173l-1.182-1.409c-0.305-0.363-0.845-0.41-1.208-0.106l-1.367 1.147c-0.363 0.304-0.41 0.845-0.106 1.208l1.183 1.409c-0.091 0.142-0.175 0.289-0.253 0.438l-1.812-0.319c-0.466-0.082-0.911 0.23-0.993 0.696l-0.31 1.758c-0.082 0.466 0.23 0.911 0.696 0.994l1.812 0.319c0.022 0.168 0.051 0.334 0.087 0.499l-1.593 0.92c-0.409 0.236-0.55 0.762-0.314 1.172l0.892 1.546c0.237 0.409 0.762 0.55 1.172 0.314l1.594-0.92c0.125 0.114 0.254 0.222 0.387 0.325l-0.629 1.729c-0.162 0.444 0.068 0.938 0.513 1.099l1.677 0.611c0.444 0.162 0.938-0.068 1.099-0.513l0.629-1.729c0.169 0.008 0.337 0.008 0.506 0l0.629 1.729c0.162 0.446 0.654 0.675 1.099 0.513l1.677-0.611c0.444-0.162 0.674-0.655 0.513-1.099l-0.629-1.729c0.134-0.103 0.263-0.211 0.387-0.325l1.594 0.92c0.41 0.237 0.935 0.097 1.171-0.314l0.893-1.546c0.237-0.41 0.096-0.935-0.314-1.172l-1.593-0.92c0.036-0.165 0.065-0.331 0.087-0.499zM28.612 25.779l1.828 1.055-0.808 1.399-1.829-1.056c-0.188-0.108-0.425-0.075-0.576 0.082-0.242 0.252-0.512 0.479-0.802 0.673-0.18 0.121-0.254 0.349-0.18 0.552l0.722 1.985-1.518 0.552c-1.106-3.037-0.529-2.107-2.263-2.292-0.216-0.023-0.419 0.104-0.493 0.307l-0.722 1.985-1.518-0.552 0.722-1.985c0.074-0.204-0-0.431-0.18-0.552-0.29-0.195-0.559-0.421-0.802-0.673-0.15-0.157-0.388-0.19-0.576-0.082l-1.829 1.056-0.808-1.399 1.828-1.055c0.188-0.108 0.277-0.331 0.217-0.539-0.488-1.688 0.538-1.269-2.649-1.831l0.28-1.591 2.079 0.367c0.213 0.037 0.425-0.075 0.513-0.273 0.141-0.319 0.317-0.624 0.524-0.906 0.128-0.175 0.12-0.415-0.019-0.581l-1.358-1.618 1.237-1.038 1.357 1.617c0.139 0.166 0.375 0.216 0.569 0.12 0.313-0.154 0.644-0.274 0.983-0.358 0.211-0.052 0.359-0.241 0.359-0.458v-2.111h1.615v2.111c0 0.217 0.148 0.406 0.359 0.458 0.339 0.083 0.67 0.204 0.983 0.358 0.195 0.096 0.43 0.046 0.569-0.12l1.357-1.617 1.237 1.038-1.358 1.618c-0.14 0.166-0.148 0.406-0.020 0.581 0.207 0.282 0.383 0.587 0.524 0.906 0.088 0.198 0.299 0.311 0.513 0.273l2.079-0.367 0.28 1.591-2.080 0.367c-0.214 0.038-0.374 0.216-0.388 0.433-0.023 0.35-0.084 0.697-0.18 1.031-0.060 0.208 0.029 0.431 0.217 0.539z"></path>
            <path d="M22.217 19.86c-0.243 0.092-0.366 0.364-0.274 0.608s0.364 0.366 0.608 0.274c2.146-0.812 4.443 0.784 4.443 3.071 0 1.81-1.472 3.282-3.282 3.282-2.799 0-4.308-3.296-2.495-5.415 0.169-0.198 0.146-0.495-0.052-0.665s-0.495-0.146-0.665 0.052c-2.333 2.727-0.392 6.97 3.211 6.97 2.33 0 4.225-1.895 4.225-4.225 0-2.941-2.954-4.999-5.719-3.953z"></path>
            <path d="M23.711 26.494c2.372-0 3.591-2.884 1.897-4.578-1.689-1.689-4.579-0.477-4.579 1.897 0 1.489 1.206 2.681 2.682 2.681zM23.711 22.073c1.557 0 2.316 1.884 1.23 2.969-0.678 0.678-1.782 0.678-2.46 0-1.082-1.082-0.332-2.969 1.23-2.969z"></path>
        </symbol>
    </defs>
</svg>
