<svg height="512pt" viewBox="-68 0 512 512.00087" width="512pt"
  xmlns="http://www.w3.org/2000/svg"
  xmlns:xlink="http://www.w3.org/1999/xlink">
  <linearGradient id="lg1">
    <stop offset=".0112" stop-color="#ffdc70"/>
    <stop offset=".0871" stop-color="#f9c781"/>
    <stop offset=".1723" stop-color="#f4b68f"/>
    <stop offset=".236" stop-color="#f2b094"/>
    <stop offset=".4494" stop-color="#a0aec1"/>
    <stop offset=".6966" stop-color="#98a7ad"/>
    <stop offset="1" stop-color="#497692"/>
  </linearGradient>
  <linearGradient id="linear0" gradientTransform="matrix(.867863 0 0 -.867863 -68.266521 517.246231)" gradientUnits="userSpaceOnUse" x1="420.9947" x2="148.436" xlink:href="#lg1" y1="469.7329" y2="197.1742"/>
  <linearGradient id="linear1" gradientTransform="matrix(.867863 0 0 -.867863 -68.266521 517.246231)" gradientUnits="userSpaceOnUse" x1="393.5146" x2="63.2611" xlink:href="#lg1" y1="478.22" y2="147.9665"/>
  <linearGradient id="linear2" gradientTransform="matrix(.867863 0 0 -.867863 -68.266521 517.246231)" gradientUnits="userSpaceOnUse" x1="426.8969" x2="-15.7081" xlink:href="#lg1" y1="491.9372" y2="49.3321"/>
  <linearGradient id="linear3" gradientTransform="matrix(.867863 0 0 -.867863 -68.266521 517.246231)" gradientUnits="userSpaceOnUse" x1="357.7161" x2="-53.0925" xlink:href="#lg1" y1="511.2497" y2="100.4411"/>
  <linearGradient id="linear4" gradientTransform="matrix(.867863 0 0 -.867863 -68.266521 517.246231)" gradientUnits="userSpaceOnUse" x1="391.9067" x2="-18.9018" xlink:href="#lg1" y1="506.1099" y2="95.3013"/>
  <linearGradient id="linear6" gradientTransform="matrix(.867863 0 0 -.867863 -68.266521 517.246231)" gradientUnits="userSpaceOnUse" x1="426.0973" x2="15.2887" xlink:href="#lg1" y1="500.9701" y2="90.1616"/>
  <linearGradient id="linear8" gradientTransform="matrix(.867863 0 0 -.867863 -68.266521 517.246231)" gradientUnits="userSpaceOnUse" x1="460.2879" x2="49.4793" xlink:href="#lg1" y1="495.8304" y2="85.0218"/>
  <linearGradient id="linear9" gradientTransform="matrix(.867863 0 0 -.867863 -68.266521 517.246231)" gradientUnits="userSpaceOnUse" x1="366.2638" x2="-44.5448" xlink:href="#lg1" y1="509.9647" y2="99.1562"/>
  <linearGradient id="linear10" gradientTransform="matrix(.867863 0 0 -.867863 -68.266521 517.246231)" gradientUnits="userSpaceOnUse" x1="520.1214" x2="109.3129" xlink:href="#lg1" y1="486.8358" y2="76.0272"/>
  <linearGradient id="linear11" gradientTransform="matrix(.867863 0 0 -.867863 -68.266521 517.246231)" gradientUnits="userSpaceOnUse" x1="485.9308" x2="75.1223" xlink:href="#lg1" y1="491.9756" y2="81.167"/>
  <linearGradient id="linear12" gradientTransform="matrix(.867863 0 0 -.867863 -68.266521 517.246231)" gradientUnits="userSpaceOnUse" x1="278.427" x2="-231.6391" xlink:href="#lg1" y1="529.7103" y2="19.6441"/>
  <linearGradient id="linear13" gradientTransform="matrix(.867863 0 0 -.867863 -68.266521 517.246231)" gradientUnits="userSpaceOnUse" x1="233.9543" x2="-77.4791" xlink:href="#lg1" y1="510.2704" y2="198.8371"/>
  <linearGradient id="linear14" gradientTransform="matrix(.867863 0 0 -.867863 -68.266521 517.246231)" gradientUnits="userSpaceOnUse" x1="617.0402" x2="286.4941" xlink:href="#lg1" y1="411.5498" y2="81.0038"/>
  <linearGradient id="linear15" gradientTransform="matrix(.867863 0 0 -.867863 -68.266521 517.246231)" gradientUnits="userSpaceOnUse" x1="569.8089" x2="299.9376" xlink:href="#lg1" y1="349.7041" y2="79.8328"/>
  <path d="m187.734375 0c-103.515625 0-187.734375 84.214844-187.734375 187.734375 0 138.472656 174.285156 314.347656 181.699219 321.765625 1.601562 1.601562 3.769531 2.5 6.035156 2.5s4.433594-.898438 6.03125-2.5c7.417969-7.417969 181.703125-183.292969 181.703125-321.765625 0-103.519531-84.21875-187.734375-187.734375-187.734375zm0 491.191406c-31.007813-32.601562-170.667969-185.984375-170.667969-303.457031 0-94.109375 76.558594-170.667969 170.667969-170.667969s170.667969 76.558594 170.667969 170.667969c-.003906 117.414063-139.675782 270.855469-170.667969 303.457031zm0 0" fill="url(#linear0)"/>
  <path d="m341.332031 187.734375c0-84.691406-68.90625-153.601563-153.597656-153.601563-84.695313 0-153.601563 68.910157-153.601563 153.601563s68.90625 153.597656 153.601563 153.597656c84.691406 0 153.597656-68.90625 153.597656-153.597656zm-153.597656 136.53125c-75.285156 0-136.535156-61.25-136.535156-136.53125 0-75.285156 61.25-136.535156 136.535156-136.535156 75.28125 0 136.53125 61.25 136.53125 136.535156 0 75.28125-61.25 136.53125-136.53125 136.53125zm0 0" fill="url(#linear1)"/>
  <path d="m290.132812 136.53125h-42.664062v-25.597656c0-4.71875-3.820312-8.535156-8.535156-8.535156h-102.398438c-4.71875 0-8.535156 3.816406-8.535156 8.535156v68.265625h-42.667969c-4.714843 0-8.53125 3.816406-8.53125 8.535156v59.730469c0 4.71875 3.816407 8.535156 8.53125 8.535156h204.800781c4.71875 0 8.535157-3.816406 8.535157-8.535156v-102.398438c0-4.714844-3.816407-8.535156-8.535157-8.535156zm-162.132812 102.402344h-34.132812v-42.667969h34.132812zm102.402344-93.867188v93.867188h-85.335938v-119.46875h85.335938zm51.199218 93.867188h-34.132812v-85.335938h34.132812zm0 0" fill="url(#linear2)"/>
  <path d="m162.132812 136.53125h17.066407v17.066406h-17.066407zm0 0" fill="url(#linear3)"/>
  <path d="m196.265625 136.53125h17.066406v17.066406h-17.066406zm0 0" fill="url(#linear4)"/>
  <path d="m162.132812 170.667969h17.066407v17.066406h-17.066407zm0 0" fill="url(#linear4)"/>
  <path d="m196.265625 170.667969h17.066406v17.066406h-17.066406zm0 0" fill="url(#linear6)"/>
  <path d="m162.132812 204.800781h17.066407v17.066407h-17.066407zm0 0" fill="url(#linear6)"/>
  <path d="m196.265625 204.800781h17.066406v17.066407h-17.066406zm0 0" fill="url(#linear8)"/>
  <path d="m102.402344 204.800781h17.066406v17.066407h-17.066406zm0 0" fill="url(#linear9)"/>
  <path d="m256 204.800781h17.066406v17.066407h-17.066406zm0 0" fill="url(#linear10)"/>
  <path d="m256 170.667969h17.066406v17.066406h-17.066406zm0 0" fill="url(#linear11)"/>
  <path d="m187.734375 76.800781v-17.066406c-26.335937 0-51.625 7.933594-73.152344 22.949219l9.769531 14c18.640626-13.007813 40.558594-19.882813 63.382813-19.882813zm0 0" fill="url(#linear12)"/>
  <path d="m110.101562 108.5-11.949218-12.199219c-8.308594 8.148438-15.476563 17.375-21.285156 27.425781l14.765624 8.546876c5.042969-8.714844 11.25-16.714844 18.46875-23.773438zm0 0" fill="url(#linear13)"/>
  <path d="m249.964844 369.433594 12.070312 12.066406c17.464844-17.464844 34.480469-42.890625 35.199219-43.964844l-14.203125-9.46875c-.164062.25-16.78125 25.082032-33.066406 41.367188zm0 0" fill="url(#linear14)"/>
  <path d="m224.367188 403.566406 12.066406 12.066406 17.066406-17.066406-12.066406-12.066406zm0 0" fill="url(#linear15)"/>
</svg>