<svg id="Layer_1" height="512" viewBox="0 0 128 128" width="512"
  xmlns="http://www.w3.org/2000/svg"
  xmlns:xlink="http://www.w3.org/1999/xlink" data-name="Layer 1">
  <linearGradient id="linear-gradient" gradientUnits="userSpaceOnUse" x1="107.385" x2="19.29" y1="125.93" y2="37.835">
    <stop offset="0" stop-color="#de176d"/>
    <stop offset="1" stop-color="#fdd743"/>
  </linearGradient>
  <path d="m115.42 113.67h-5.688l-4.2-18.3h2.715a1.75 1.75 0 0 0 1.75-1.75v-5.59h1.494a5.677 5.677 0 0 0 0-11.354h-12.366a1.75 1.75 0 0 0 0 3.5h12.369a2.177 2.177 0 0 1 0 4.354h-74.694a2.187 2.187 0 0 1 -1.865-1.054l-20.293-33.706a2.177 2.177 0 0 1 3.73-2.246l19.145 31.8a1.751 1.751 0 0 0 1.5.848h48.566a1.75 1.75 0 0 0 0-3.5h-21.833v-27.922a1.75 1.75 0 0 0 -3.5 0v27.926h-22.245l-18.634-30.957a5.677 5.677 0 0 0 -9.728 5.856l20.29 33.705a5.7 5.7 0 0 0 4.867 2.75h69.7v3.844h-85v-3.844h5.5a1.75 1.75 0 1 0 0-3.5h-7.25a1.75 1.75 0 0 0 -1.75 1.75v7.344a1.75 1.75 0 0 0 1.75 1.75h7.55l-4.2 18.3h-1.242l3.153-13.747a1.75 1.75 0 0 0 -3.411-.782l-3.332 14.525h-5.688a1.75 1.75 0 1 0 0 3.5h11.915a1.748 1.748 0 0 0 1.7-1.344c0-.006.007-.008.008-.015l1.451-6.326c3.355.071 11.2.1 20.853.1 4.308 0 8.971-.005 13.745-.014v4.1h-30.085a1.75 1.75 0 0 0 0 3.5h83.253a1.75 1.75 0 0 0 0-3.5zm-9.279 0h-1.241l-1.452-6.328v-.013l-1.878-8.188a1.75 1.75 0 0 0 -3.411.782l1.384 6.031c-10.419.041-22.491.08-33.788.1v-10.68h36.195zm-77.694-7.652 2.442-10.644h31.361v10.692c-15.43.027-28.867.022-33.803-.048zm37.3 3.544c12.651-.027 25.655-.074 34.59-.11l.968 4.218h-35.555zm-36.403-60.576h.173a1.75 1.75 0 0 0 1.728-1.474 10.849 10.849 0 0 1 20.2-3.547 1.75 1.75 0 0 0 3.059 0 10.877 10.877 0 0 1 4.996-4.595v3.63a1.75 1.75 0 0 0 1.75 1.75h5.5a1.75 1.75 0 0 0 1.75-1.75v-3.63a10.877 10.877 0 0 1 4.993 4.594 1.75 1.75 0 0 0 3.059 0 10.849 10.849 0 0 1 20.2 3.547 1.75 1.75 0 0 0 1.728 1.474h.173a1.75 1.75 0 0 0 1.75-1.75 36.426 36.426 0 0 0 -50.574-33.544 1.75 1.75 0 0 0 1.363 3.224 32.585 32.585 0 0 1 6.727-2.015c-6.905 6.807-7.694 16.65-7.359 22.858a14.358 14.358 0 0 0 -18.314.879 33.011 33.011 0 0 1 9.41-15.554 1.75 1.75 0 0 0 -2.377-2.568 36.523 36.523 0 0 0 -11.685 26.721 1.75 1.75 0 0 0 1.75 1.75zm35.656-7.736h-2v-2.809c.332-.031.663-.068 1-.068s.668.037 1 .068zm-1-26.66c5.913 3.526 9.24 9.553 9.893 17.929a1.75 1.75 0 1 0 3.489-.272c-.567-7.27-3.073-13.154-7.317-17.349a33.007 33.007 0 0 1 25.7 23.749 14.38 14.38 0 0 0 -20.747 1.39 14.394 14.394 0 0 0 -7.886-4.814c-.034-.008-.069-.012-.1-.017a14.079 14.079 0 0 0 -6.094 0c-.02 0-.041.006-.061.01a14.386 14.386 0 0 0 -6.739 3.589c-.538-6.284-.081-18.27 9.862-24.215zm-20.621 4.737a1.75 1.75 0 0 1 .485-2.427l.461-.3a1.75 1.75 0 0 1 1.894 2.943l-.413.271a1.75 1.75 0 0 1 -2.427-.485zm50.371 57.349a1.75 1.75 0 0 1 0 3.5h-1a1.75 1.75 0 0 1 0-3.5z" fill="url(#linear-gradient)"/>
</svg>